<svg width="49" height="44" viewBox="0 0 49 44" fill="none" xmlns="http://www.w3.org/2000/svg">
<path d="M40.1555 21.862C37.4115 21.862 34.4307 21.116 31.948 18.712C31.5478 18.324 31.5438 17.69 31.9398 17.298C32.3339 16.906 32.9811 16.902 33.3833 17.29C35.0023 18.858 36.9358 19.546 38.8447 19.752C38.8631 19.688 38.8672 19.62 38.8978 19.556C38.9142 19.522 40.6414 16.026 38.9611 13.556C38.6488 13.098 38.7753 12.476 39.2449 12.17C39.7084 11.866 40.3433 11.984 40.6598 12.448C42.5095 15.168 41.5438 18.438 41.0069 19.796C43.7162 19.63 48.2242 18.04 48.2446 18.046C48.7203 17.1 49 16.066 49 15C49 11.456 46.3009 8.522 42.8117 8.062C42.3421 4.644 39.345 2 35.7292 2C34.2143 2 32.781 2.46 31.5744 3.318C30.2902 1.29 28.0035 0 25.5208 0C24.4285 0 23.371 0.276 22.4073 0.744C22.491 1.046 22.4583 2.668 22.4583 3V8C22.4583 9.104 23.373 10 24.5 10C25.627 10 26.5417 9.104 26.5417 8C26.5417 7.448 26.999 7 27.5625 7C28.126 7 28.5833 7.448 28.5833 8C28.5833 10.204 26.7499 12 24.5 12C23.275 12 22.1868 11.456 21.4375 10.618C20.6882 11.456 19.6 12 18.375 12C16.1251 12 14.2917 10.204 14.2917 8C14.2917 7.448 14.749 7 15.3125 7C15.876 7 16.3333 7.448 16.3333 8C16.3333 9.104 17.248 10 18.375 10C19.502 10 20.4167 9.104 20.4167 8V3V1.312C19.2223 0.48 17.8095 0 16.3333 0C12.8768 0 10.0185 2.364 9.34879 5.568C8.34429 5.512 7.19688 5.8 6.01271 6.462C4.1405 7.512 2.25604 9.438 1.11067 11.944C4.20379 11.856 12.3276 12.082 14.2182 16.712C14.4264 17.224 14.1732 17.806 13.6506 18.01C13.526 18.058 13.3974 18.082 13.2708 18.082C12.8666 18.082 12.4827 17.844 12.3235 17.454C10.927 14.036 3.53413 13.774 0.412417 13.976C0.163333 14.932 0 15.936 0 17C0 22.056 3.60763 25.912 6.95596 27.354C8.27283 27.92 9.49375 28.094 10.5064 27.874C10.7637 28.706 11.2373 29.394 11.8212 30H17.4175C17.0602 26.912 17.8135 20.816 23.2199 19.05C23.7548 18.88 24.3326 19.16 24.5123 19.682C24.6899 20.206 24.4 20.772 23.8671 20.948C19.7184 22.302 19.4632 26.364 19.4428 30H21.4375C22.001 30 22.4583 30.448 22.4583 31C22.4583 31.552 22.001 32 21.4375 32H15.6514C16.6314 34.118 18.9732 37 24.5 37C25.2391 37 25.923 36.834 26.5417 36.604V33.93C26.5417 29.556 30.1718 26 34.6369 26C35.2004 26 35.6577 26.448 35.6577 27C35.6577 27.552 35.2004 28 34.6369 28C31.2987 28 28.5833 30.66 28.5833 33.93V37V43C28.5833 43.552 29.0407 44 29.6042 44H33.6875C34.251 44 34.7083 43.552 34.7083 43V34.692C36.8174 34.074 38.5242 32.524 39.3205 30.532C40.8966 31.134 42.6178 31.156 44.2797 30.588C46.4112 29.86 48.1119 28.096 48.7183 25.984C49.3001 23.952 48.904 21.88 47.7689 20.198C46.4785 20.758 43.5079 21.862 40.1555 21.862Z" fill="#FDD231"/>
</svg>
