<svg width="109" height="28" viewBox="0 0 109 28" fill="none" xmlns="http://www.w3.org/2000/svg">
<mask id="path-1-outside-1" maskUnits="userSpaceOnUse" x="-8.74228e-08" y="-9.44166e-06" width="109" height="28" fill="black">
<rect fill="white" x="-8.74228e-08" y="-9.44166e-06" width="109" height="28"/>
<path fill-rule="evenodd" clip-rule="evenodd" d="M108 23C108 25.2091 106.209 27 104 27L66.1047 27L57.1633 27L48.5471 27L11 27C8.79086 27 7 25.2091 7 23L7 21C7 19.2786 4.9135 17.4277 2.93944 16.0617C1.58033 15.1213 1.58033 12.8787 2.93944 11.9383C4.9135 10.5723 7 8.72135 7 6.99999L7 4.99999C7 2.79085 8.79086 0.999992 11 0.999992L104 1C106.209 1 108 2.79086 108 5L108 23Z"/>
</mask>
<path fill-rule="evenodd" clip-rule="evenodd" d="M108 23C108 25.2091 106.209 27 104 27L66.1047 27L57.1633 27L48.5471 27L11 27C8.79086 27 7 25.2091 7 23L7 21C7 19.2786 4.9135 17.4277 2.93944 16.0617C1.58033 15.1213 1.58033 12.8787 2.93944 11.9383C4.9135 10.5723 7 8.72135 7 6.99999L7 4.99999C7 2.79085 8.79086 0.999992 11 0.999992L104 1C106.209 1 108 2.79086 108 5L108 23Z" fill="#383838" fill-opacity="0.75"/>
<path d="M104 27L104 26L104 27ZM108 23L109 23L108 23ZM66.1047 27L66.1047 28L66.1047 27ZM57.1633 27L57.1633 28L57.1633 27ZM48.5471 27L48.5471 26L48.5471 27ZM2.93944 16.0617L2.37042 16.884L2.37042 16.884L2.93944 16.0617ZM2.93944 11.9383L2.37042 11.1159L2.37042 11.1159L2.93944 11.9383ZM11 0.999992L11 -8.21707e-06L11 0.999992ZM104 1L104 2L104 1ZM108 5L107 5L108 5ZM104 28C106.761 28 109 25.7614 109 23L107 23C107 24.6568 105.657 26 104 26L104 28ZM66.1047 28L104 28L104 26L66.1047 26L66.1047 28ZM57.1633 28L66.1047 28L66.1047 26L57.1633 26L57.1633 28ZM48.5471 28L57.1633 28L57.1633 26L48.5471 26L48.5471 28ZM11 28L48.5471 28L48.5471 26L11 26L11 28ZM6 23C6 25.7614 8.23858 28 11 28L11 26C9.34314 26 8 24.6568 8 23L6 23ZM6 21L6 23L8 23L8 21L6 21ZM8 21C8 19.7565 7.26552 18.6257 6.45128 17.7264C5.6095 16.7967 4.52427 15.9423 3.50846 15.2394L2.37042 16.884C3.32866 17.5471 4.27371 18.3012 4.9687 19.0688C5.69123 19.8668 6 20.5221 6 21L8 21ZM3.50846 15.2394C3.14502 14.9879 2.92011 14.528 2.92011 14C2.92011 13.472 3.14502 13.0121 3.50846 12.7606L2.37042 11.1159C1.37474 11.8049 0.920106 12.9365 0.920106 14C0.920106 15.0634 1.37474 16.1951 2.37042 16.884L3.50846 15.2394ZM3.50846 12.7606C4.52427 12.0577 5.6095 11.2033 6.45129 10.2736C7.26552 9.37428 8 8.24347 8 6.99999L6 6.99999C6 7.47787 5.69123 8.1332 4.9687 8.93122C4.27371 9.6988 3.32866 10.4529 2.37042 11.1159L3.50846 12.7606ZM6 4.99999L6 6.99999L8 6.99999L8 4.99999L6 4.99999ZM11 -8.21707e-06C8.23858 -8.45848e-06 6 2.23857 6 4.99999L8 4.99999C8 3.34314 9.34315 1.99999 11 1.99999L11 -8.21707e-06ZM104 -8.67464e-08L11 -8.21707e-06L11 1.99999L104 2L104 -8.67464e-08ZM109 5C109 2.23857 106.761 1.54665e-07 104 -8.67464e-08L104 2C105.657 2 107 3.34314 107 5L109 5ZM109 23L109 5L107 5L107 23L109 23Z" fill="black" fill-opacity="0.9" mask="url(#path-1-outside-1)"/>
<path d="M104 27L104 26L104 27ZM108 23L109 23L108 23ZM66.1047 27L66.1047 28L66.1047 27ZM57.1633 27L57.1633 28L57.1633 27ZM48.5471 27L48.5471 26L48.5471 27ZM2.93944 16.0617L2.37042 16.884L2.37042 16.884L2.93944 16.0617ZM2.93944 11.9383L2.37042 11.1159L2.37042 11.1159L2.93944 11.9383ZM11 0.999992L11 -8.21707e-06L11 0.999992ZM104 1L104 2L104 1ZM108 5L107 5L108 5ZM104 28C106.761 28 109 25.7614 109 23L107 23C107 24.6568 105.657 26 104 26L104 28ZM66.1047 28L104 28L104 26L66.1047 26L66.1047 28ZM57.1633 28L66.1047 28L66.1047 26L57.1633 26L57.1633 28ZM48.5471 28L57.1633 28L57.1633 26L48.5471 26L48.5471 28ZM11 28L48.5471 28L48.5471 26L11 26L11 28ZM6 23C6 25.7614 8.23858 28 11 28L11 26C9.34314 26 8 24.6568 8 23L6 23ZM6 21L6 23L8 23L8 21L6 21ZM8 21C8 19.7565 7.26552 18.6257 6.45128 17.7264C5.6095 16.7967 4.52427 15.9423 3.50846 15.2394L2.37042 16.884C3.32866 17.5471 4.27371 18.3012 4.9687 19.0688C5.69123 19.8668 6 20.5221 6 21L8 21ZM3.50846 15.2394C3.14502 14.9879 2.92011 14.528 2.92011 14C2.92011 13.472 3.14502 13.0121 3.50846 12.7606L2.37042 11.1159C1.37474 11.8049 0.920106 12.9365 0.920106 14C0.920106 15.0634 1.37474 16.1951 2.37042 16.884L3.50846 15.2394ZM3.50846 12.7606C4.52427 12.0577 5.6095 11.2033 6.45129 10.2736C7.26552 9.37428 8 8.24347 8 6.99999L6 6.99999C6 7.47787 5.69123 8.1332 4.9687 8.93122C4.27371 9.6988 3.32866 10.4529 2.37042 11.1159L3.50846 12.7606ZM6 4.99999L6 6.99999L8 6.99999L8 4.99999L6 4.99999ZM11 -8.21707e-06C8.23858 -8.45848e-06 6 2.23857 6 4.99999L8 4.99999C8 3.34314 9.34315 1.99999 11 1.99999L11 -8.21707e-06ZM104 -8.67464e-08L11 -8.21707e-06L11 1.99999L104 2L104 -8.67464e-08ZM109 5C109 2.23857 106.761 1.54665e-07 104 -8.67464e-08L104 2C105.657 2 107 3.34314 107 5L109 5ZM109 23L109 5L107 5L107 23L109 23Z" fill="white" fill-opacity="0.2" mask="url(#path-1-outside-1)"/>
<path d="M16.9431 8.36377L16.9431 20.0001L18.6136 20.0001L18.6136 11.574L18.7215 11.574L22.1533 19.9831L23.5397 19.9831L26.9715 11.5797L27.0795 11.5797L27.0795 20.0001L28.7499 20.0001L28.7499 8.36377L26.6193 8.36377L22.9147 17.4092L22.7783 17.4092L19.0738 8.36377L16.9431 8.36377Z" fill="#F2F2F2"/>
<path d="M35.0023 20.1763C37.4625 20.1763 39.0704 18.3751 39.0704 15.6763C39.0704 12.9604 37.4625 11.1592 35.0023 11.1592C32.542 11.1592 30.9341 12.9604 30.9341 15.6763C30.9341 18.3751 32.542 20.1763 35.0023 20.1763ZM35.0079 18.7501C33.4 18.7501 32.65 17.3467 32.65 15.6706C32.65 14.0001 33.4 12.5797 35.0079 12.5797C36.6045 12.5797 37.3545 14.0001 37.3545 15.6706C37.3545 17.3467 36.6045 18.7501 35.0079 18.7501Z" fill="#F2F2F2"/>
<path d="M46.6552 16.3808C46.6608 17.8638 45.5586 18.5683 44.604 18.5683C43.5529 18.5683 42.8256 17.807 42.8256 16.6195L42.8256 11.2729L41.1268 11.2729L41.1268 16.824C41.1268 18.9888 42.3143 20.1138 43.9904 20.1138C45.3029 20.1138 46.1949 19.4206 46.5983 18.4888L46.6893 18.4888L46.6893 20.0001L48.3597 20.0001L48.3597 11.2729L46.6552 11.2729L46.6552 16.3808Z" fill="#F2F2F2"/>
<path d="M57.3422 13.4035C56.9899 12.0456 55.9274 11.1592 54.041 11.1592C52.0694 11.1592 50.6717 12.199 50.6717 13.7445C50.6717 14.9831 51.4217 15.807 53.0581 16.1706L54.5353 16.4945C55.3762 16.682 55.7683 17.057 55.7683 17.6024C55.7683 18.2785 55.0467 18.807 53.9331 18.807C52.916 18.807 52.2626 18.3695 52.0581 17.5115L50.416 17.7615C50.7001 19.307 51.9842 20.1763 53.9444 20.1763C56.0524 20.1763 57.5126 19.057 57.5126 17.4774C57.5126 16.2445 56.7285 15.4831 55.1262 15.1138L53.7399 14.7956C52.7796 14.5683 52.3649 14.2445 52.3706 13.6535C52.3649 12.9831 53.0922 12.5058 54.0581 12.5058C55.1149 12.5058 55.6035 13.091 55.8024 13.6763L57.3422 13.4035Z" fill="#F2F2F2"/>
<path d="M63.3019 20.1763C65.2053 20.1763 66.5519 19.2388 66.9382 17.8183L65.3303 17.5285C65.0235 18.3524 64.2848 18.7729 63.3189 18.7729C61.8644 18.7729 60.8871 17.8297 60.8416 16.1479L67.0462 16.1479L67.0462 15.5456C67.0462 12.3922 65.1598 11.1592 63.1825 11.1592C60.7507 11.1592 59.1485 13.0115 59.1485 15.6933C59.1485 18.4035 60.728 20.1763 63.3019 20.1763ZM60.8473 14.8751C60.9155 13.6365 61.8132 12.5626 63.1939 12.5626C64.5121 12.5626 65.3757 13.5399 65.3814 14.8751L60.8473 14.8751Z" fill="#F2F2F2"/>
<path d="M69.0911 8.36377L69.0911 17.966C69.0911 19.3467 69.8014 20.0854 71.2729 20.0626C71.7275 20.057 72.0911 19.9831 72.3298 19.9092L72.0229 18.5513C71.9036 18.5854 71.7843 18.6251 71.4889 18.6308C70.9434 18.6479 70.79 18.3638 70.79 17.6138L70.79 8.36377L69.0911 8.36377Z" fill="#F2F2F2"/>
<path d="M77.3719 20.1763C79.2753 20.1763 80.6219 19.2388 81.0082 17.8183L79.4003 17.5285C79.0935 18.3524 78.3548 18.7729 77.3889 18.7729C75.9344 18.7729 74.9571 17.8297 74.9116 16.1479L81.1162 16.1479L81.1162 15.5456C81.1162 12.3922 79.2298 11.1592 77.2525 11.1592C74.8207 11.1592 73.2185 13.0115 73.2185 15.6933C73.2185 18.4035 74.798 20.1763 77.3719 20.1763ZM74.9173 14.8751C74.9855 13.6365 75.8832 12.5626 77.2639 12.5626C78.5821 12.5626 79.4457 13.5399 79.4514 14.8751L74.9173 14.8751Z" fill="#F2F2F2"/>
<path d="M89.7009 13.4035C89.3486 12.0456 88.2861 11.1592 86.3998 11.1592C84.4282 11.1592 83.0304 12.199 83.0304 13.7445C83.0304 14.9831 83.7804 15.807 85.4168 16.1706L86.8941 16.4945C87.735 16.682 88.127 17.0569 88.127 17.6024C88.127 18.2785 87.4054 18.807 86.2918 18.807C85.2748 18.807 84.6214 18.3695 84.4168 17.5115L82.7748 17.7615C83.0589 19.307 84.3429 20.1763 86.3032 20.1763C88.4111 20.1763 89.8714 19.057 89.8714 17.4774C89.8714 16.2444 89.0873 15.4831 87.485 15.1138L86.0986 14.7956C85.1384 14.5683 84.7236 14.2445 84.7293 13.6535C84.7236 12.9831 85.4509 12.5058 86.4168 12.5058C87.4736 12.5058 87.9623 13.091 88.1611 13.6763L89.7009 13.4035Z" fill="#F2F2F2"/>
<path d="M98.439 13.4035C98.0867 12.0456 97.0242 11.1592 95.1379 11.1592C93.1663 11.1592 91.7686 12.199 91.7686 13.7445C91.7686 14.9831 92.5186 15.807 94.1549 16.1706L95.6322 16.4945C96.4731 16.682 96.8652 17.0569 96.8652 17.6024C96.8652 18.2785 96.1436 18.807 95.0299 18.807C94.0129 18.807 93.3595 18.3695 93.1549 17.5115L91.5129 17.7615C91.797 19.307 93.0811 20.1763 95.0413 20.1763C97.1492 20.1763 98.6095 19.0569 98.6095 17.4774C98.6095 16.2444 97.8254 15.4831 96.2231 15.1138L94.8367 14.7956C93.8765 14.5683 93.4617 14.2445 93.4674 13.6535C93.4617 12.9831 94.189 12.5058 95.1549 12.5058C96.2117 12.5058 96.7004 13.091 96.8992 13.6763L98.439 13.4035Z" fill="#F2F2F2"/>
</svg>
