<svg width="24" height="24" viewBox="0 0 24 24" fill="none" xmlns="http://www.w3.org/2000/svg">
<path d="M12 0.628006C6.916 0.628006 1.513 2.37601 1.5 5.61801V5.62801V18.378C1.5 21.626 6.909 23.378 12 23.378C17.091 23.378 22.5 21.626 22.5 18.378V5.62801C22.5 2.38001 17.091 0.628006 12 0.628006ZM20.5 18.378C20.5 19.601 17.188 21.378 12 21.378C6.812 21.378 3.5 19.601 3.5 18.378V17.589C3.49991 17.5454 3.51128 17.5025 3.53296 17.4647C3.55464 17.4269 3.58587 17.3954 3.62354 17.3734C3.6612 17.3515 3.70397 17.3398 3.74758 17.3395C3.79118 17.3393 3.83409 17.3505 3.872 17.372C6.40201 18.5986 9.18925 19.2008 12 19.128C14.8104 19.2007 17.5973 18.5986 20.127 17.372C20.1649 17.3502 20.2078 17.3386 20.2515 17.3386C20.2952 17.3386 20.3381 17.3502 20.376 17.372C20.4135 17.3941 20.4446 17.4255 20.4663 17.4632C20.488 17.5009 20.4996 17.5435 20.5 17.587V18.378ZM20.5 14.128C20.5 15.351 17.188 17.128 12 17.128C6.812 17.128 3.5 15.351 3.5 14.128V13.339C3.49991 13.2954 3.51128 13.2525 3.53296 13.2147C3.55464 13.1769 3.58587 13.1454 3.62354 13.1234C3.6612 13.1015 3.70397 13.0898 3.74758 13.0895C3.79118 13.0893 3.83409 13.1005 3.872 13.122C6.40201 14.3486 9.18925 14.9508 12 14.878C14.8104 14.9507 17.5973 14.3486 20.127 13.122C20.1649 13.1002 20.2078 13.0886 20.2515 13.0886C20.2952 13.0886 20.3381 13.1002 20.376 13.122C20.4135 13.1441 20.4446 13.1755 20.4663 13.2132C20.488 13.2509 20.4996 13.2935 20.5 13.337V14.128ZM20.5 9.87801C20.5 11.101 17.188 12.878 12 12.878C6.812 12.878 3.5 11.101 3.5 9.87801V9.08901C3.49974 9.04532 3.51097 9.00233 3.53258 8.96435C3.55419 8.92638 3.58541 8.89476 3.6231 8.87267C3.6608 8.85058 3.70364 8.8388 3.74733 8.83851C3.79102 8.83822 3.83401 8.84942 3.872 8.87101C6.40176 10.0985 9.18912 10.701 12 10.628C14.8104 10.7008 17.5974 10.0987 20.127 8.87201C20.1651 8.8505 20.2081 8.83934 20.2518 8.83966C20.2955 8.83998 20.3384 8.85175 20.3761 8.87381C20.4139 8.89587 20.4452 8.92745 20.4669 8.96538C20.4887 9.00332 20.5001 9.04629 20.5 9.09001V9.87801ZM20.5 5.62801C20.489 6.85201 17.181 8.62801 12 8.62801C6.819 8.62801 3.5 6.85101 3.5 5.62801C3.5 4.40501 6.812 2.62801 12 2.62801C17.188 2.62801 20.5 4.40101 20.5 5.62801Z" fill="black"/>
</svg>
