<svg width="24" height="24" viewBox="0 0 24 24" fill="none" xmlns="http://www.w3.org/2000/svg">
<path d="M9.37002 13.6L10.91 15.15C10.27 15.33 9.67002 15.67 9.17002 16.17C9.08037 16.2747 8.97006 16.3597 8.84599 16.4197C8.72193 16.4798 8.58679 16.5135 8.44908 16.5188C8.31136 16.5241 8.17402 16.5009 8.0457 16.4506C7.91737 16.4004 7.80083 16.3241 7.70337 16.2267C7.60592 16.1292 7.52966 16.0127 7.47938 15.8843C7.42911 15.756 7.4059 15.6187 7.41122 15.4809C7.41654 15.3432 7.45027 15.2081 7.5103 15.084C7.57032 14.96 7.65534 14.8497 7.76002 14.76C8.22634 14.2911 8.76696 13.9025 9.36002 13.61L9.37002 13.6ZM6.44002 10.68L7.89002 12.13C7.34002 12.46 6.82002 12.87 6.34002 13.34C6.14872 13.5038 5.90264 13.5894 5.65097 13.5797C5.39929 13.57 5.16055 13.4657 4.98246 13.2876C4.80436 13.1095 4.70003 12.8707 4.69031 12.6191C4.68059 12.3674 4.7662 12.1213 4.93002 11.93C5.40002 11.46 5.91002 11.04 6.44002 10.68ZM13.34 9.08C15.5115 9.37381 17.5255 10.3755 19.07 11.93C19.2338 12.1213 19.3195 12.3674 19.3097 12.6191C19.3 12.8707 19.1957 13.1095 19.0176 13.2876C18.8395 13.4657 18.6008 13.57 18.3491 13.5797C18.0974 13.5894 17.8513 13.5038 17.66 13.34C17.4448 13.1274 17.2177 12.9271 16.98 12.74L13.33 9.1L13.34 9.08ZM3.56002 7.83L5.00002 9.25C4.48002 9.62 3.98002 10.05 3.51002 10.51C3.42406 10.6246 3.31447 10.7194 3.18868 10.788C3.06288 10.8566 2.92382 10.8973 2.78091 10.9075C2.638 10.9176 2.49457 10.897 2.36035 10.8469C2.22612 10.7968 2.10422 10.7184 2.00292 10.6171C1.90161 10.5158 1.82325 10.3939 1.77315 10.2597C1.72305 10.1255 1.70238 9.98203 1.71254 9.83911C1.72269 9.6962 1.76344 9.55714 1.83202 9.43135C1.9006 9.30555 1.9954 9.19597 2.11002 9.11C2.57002 8.63 3.06002 8.21 3.57002 7.81L3.56002 7.83ZM9.46002 5.23C13.83 4.44 18.51 5.73 21.89 9.11C21.9947 9.19965 22.0797 9.30997 22.1397 9.43403C22.1998 9.5581 22.2335 9.69323 22.2388 9.83095C22.2441 9.96867 22.2209 10.106 22.1707 10.2343C22.1204 10.3627 22.0441 10.4792 21.9467 10.5767C21.8492 10.6741 21.7327 10.7504 21.6043 10.8006C21.476 10.8509 21.3387 10.8741 21.201 10.8688C21.0633 10.8635 20.9281 10.8298 20.8041 10.7697C20.68 10.7097 20.5697 10.6247 20.48 10.52C19.2791 9.31697 17.8358 8.38351 16.246 7.78175C14.6562 7.17998 12.9565 6.92372 11.26 7.03L9.46002 5.23V5.23Z" fill="black"/>
<path d="M12 20.5C11.6022 20.5 11.2206 20.342 10.9393 20.0607C10.658 19.7794 10.5 19.3978 10.5 19C10.5 18.6022 10.658 18.2207 10.9393 17.9393C11.2206 17.658 11.6022 17.5 12 17.5C12.3978 17.5 12.7793 17.658 13.0606 17.9393C13.3419 18.2207 13.5 18.6022 13.5 19C13.5 19.3978 13.3419 19.7794 13.0606 20.0607C12.7793 20.342 12.3978 20.5 12 20.5ZM3.29998 4.70001C3.15555 4.50744 3.08543 4.26923 3.10249 4.02912C3.11956 3.78901 3.22266 3.56311 3.39287 3.3929C3.56308 3.22269 3.78898 3.11959 4.02909 3.10252C4.2692 3.08546 4.5074 3.15558 4.69998 3.30001L20.7 19.3C20.8444 19.4926 20.9145 19.7308 20.8975 19.9709C20.8804 20.211 20.7773 20.4369 20.6071 20.6071C20.4369 20.7773 20.211 20.8804 19.9709 20.8975C19.7308 20.9146 19.4925 20.8444 19.3 20.7L3.29998 4.70001V4.70001Z" fill="black"/>
</svg>
